<?xml version="1.0" encoding="UTF-8"?>
<svg id="Layer_1" data-name="Layer 1" xmlns="http://www.w3.org/2000/svg" viewBox="0 0 48 48">
  <defs>
    <style>
      .cls-1 {
        fill: #ea0029;
      }

      .cls-2 {
        fill: #fff;
      }
    </style>
  </defs>
  <path class="cls-1" d="M48,24C48,10.75,37.25,0,24,0S0,10.75,0,24s10.74,24,24,24,24-10.75,24-24"/>
  <g>
    <path class="cls-2" d="M7.7,20.98c.77-1.75,2.22-2.63,4.35-2.63v3.31c-1.17-.08-2.19.2-3.05.83-.87.63-1.3,1.67-1.3,3.12v7.12h-3.05v-14.13h3.05v2.38Z"/>
    <path class="cls-2" d="M15.67,26.97c.23,1.07.75,1.9,1.56,2.47.81.57,1.8.86,2.96.86,1.62,0,2.83-.58,3.64-1.75l2.51,1.47c-1.39,2.05-3.45,3.08-6.19,3.08-2.3,0-4.15-.7-5.57-2.1-1.41-1.4-2.12-3.18-2.12-5.33s.7-3.87,2.09-5.3c1.39-1.42,3.18-2.13,5.37-2.13,2.07,0,3.77.72,5.1,2.18,1.33,1.45,1.99,3.21,1.99,5.28,0,.32-.04.75-.11,1.27h-11.24ZM15.64,24.49h8.31c-.21-1.15-.68-2.01-1.43-2.6-.75-.58-1.62-.88-2.61-.88-1.13,0-2.07.31-2.83.93-.75.62-1.23,1.47-1.44,2.54Z"/>
    <path class="cls-2" d="M40.1,12.96h3.05v19.78h-3.05v-2.03c-1.15,1.6-2.8,2.4-4.95,2.4-1.94,0-3.6-.72-4.97-2.16s-2.06-3.2-2.06-5.27.69-3.85,2.06-5.28,3.03-2.15,4.97-2.15c2.15,0,3.8.79,4.95,2.37v-7.66ZM32.45,28.91c.85.86,1.91,1.29,3.19,1.29s2.35-.43,3.19-1.29c.85-.86,1.27-1.94,1.27-3.24s-.42-2.38-1.27-3.23c-.85-.86-1.91-1.29-3.19-1.29s-2.34.43-3.19,1.29c-.85.86-1.27,1.94-1.27,3.23s.43,2.38,1.27,3.24Z"/>
  </g>
</svg>