<?xml version="1.0" encoding="UTF-8"?>
<svg id="Layer_1" data-name="Layer 1" xmlns="http://www.w3.org/2000/svg" viewBox="0 0 1200 768">
  <defs>
    <style>
      .cls-1 {
        fill: #ea0029;
      }

      .cls-2 {
        fill: #fff;
      }

      .cls-3 {
        fill: #002554;
      }
    </style>
  </defs>
  <path class="cls-1" d="M698.45,384c0-146.99-119.16-266.15-266.15-266.15S166.15,237.01,166.15,384s119.16,266.15,266.15,266.15,266.15-119.16,266.15-266.15"/>
  <path class="cls-2" d="M187.28,383.69c0-46.92,35.58-83.13,83.44-83.13,30.54,0,57.62,16.06,71.16,40.31l-41.25,23.93c-5.36-11.02-16.69-17.63-30.55-17.63-20.47,0-35.58,14.8-35.58,36.53s15.11,36.53,35.58,36.53c13.86,0,25.51-6.62,30.55-17.64l41.25,23.62c-13.54,24.56-40.3,40.62-71.16,40.62-47.86,0-83.44-36.21-83.44-83.13"/>
  <path class="cls-2" d="M526.34,383.69c0,46.92-34,83.13-75.26,83.13-21.1,0-36.53-7.24-46.92-19.21v14.8h-47.23v-220.41h47.23v77.77c10.39-11.97,25.82-19.21,46.92-19.21,41.25,0,75.26,36.21,75.26,83.13M479.59,383.69c0-23.61-15.84-38.42-37.71-38.42s-37.71,14.8-37.71,38.42,15.84,38.42,37.71,38.42,37.71-14.8,37.71-38.42"/>
  <polygon class="cls-2" points="666.05 418.08 666.05 462.41 539.41 462.41 539.41 418.08 601.69 348.43 539.41 348.43 539.41 304.11 666.05 304.11 666.05 348.43 603.04 418.08 666.05 418.08"/>
  <g>
    <path class="cls-3" d="M751.55,437.59h64.42v24.87h-90.41v-158.2h25.99v133.33Z"/>
    <path class="cls-3" d="M844.32,327.86c-3.08,3.1-6.75,4.64-10.96,4.64s-7.87-1.55-10.96-4.64c-3.08-3.07-4.63-6.73-4.63-10.96s1.51-7.87,4.53-10.96c3.01-3.07,6.69-4.62,11.07-4.62s8.06,1.55,11.08,4.62c3.02,3.1,4.53,6.76,4.53,10.96s-1.55,7.89-4.64,10.96ZM821.16,462.46v-113.01h24.41v113.01h-24.41Z"/>
    <path class="cls-3" d="M920.39,324.82c-17.79-1.65-26.67,5.8-26.67,22.36v2.27h26.67v23.5h-26.67v89.51h-24.41v-89.51h-17.18v-23.5h17.18v-2.27c0-15.5,4.33-27.29,13-35.36,8.65-8.05,21.36-11.56,38.09-10.5v23.5Z"/>
    <path class="cls-3" d="M942.99,416.37c1.81,8.59,5.95,15.17,12.43,19.76,6.47,4.62,14.38,6.91,23.73,6.91,12.95,0,22.67-4.67,29.15-14.03l20.12,11.76c-11.16,16.43-27.65,24.63-49.5,24.63-18.38,0-33.22-5.6-44.52-16.84-11.31-11.22-16.96-25.41-16.96-42.59s5.57-31.01,16.73-42.38c11.16-11.38,25.46-17.08,42.95-17.08,16.57,0,30.18,5.8,40.79,17.41,10.63,11.61,15.94,25.69,15.94,42.25,0,2.58-.31,5.96-.9,10.19h-89.96ZM942.76,396.48h66.45c-1.65-9.21-5.46-16.12-11.41-20.82-5.95-4.67-12.91-6.99-20.91-6.99-9.04,0-16.57,2.48-22.6,7.45-6.02,4.98-9.87,11.76-11.53,20.35Z"/>
  </g>
</svg>